<svg id="圖層_1" data-name="圖層 1" xmlns="http://www.w3.org/2000/svg" viewBox="0 0 64 64"><defs><style>.cls-1{fill:#fff;}</style></defs><title>android_white_24dp</title><path class="cls-1" d="M11.75,21.14h0a4,4,0,0,0-4,4V39.4a4,4,0,0,0,8,0V25.15A4,4,0,0,0,11.75,21.14Z"/><path class="cls-1" d="M16.91,44.43a3.67,3.67,0,0,0,3.67,3.67h1.84v7.53a4,4,0,1,0,8,0V48.1H33.8v7.52a4,4,0,0,0,8,0V48.09h1.83a3.67,3.67,0,0,0,3.68-3.67V22.34H16.91Z"/><path class="cls-1" d="M25.18,14.25a.09.09,0,0,0-.1,0,0,0,0,0,0,0,0s0,.07.06.07h.05a0,0,0,0,0,0,0v-.06Z"/><path class="cls-1" d="M52.49,21.14a4,4,0,0,0-4,4V39.39a4,4,0,0,0,4,4h0a4,4,0,0,0,4-4V25.15h0A4,4,0,0,0,52.49,21.14Z"/><path class="cls-1" d="M39.21,14.25a.09.09,0,0,0-.1,0v0a.07.07,0,0,0,.06.07h.06l0-.07A0,0,0,0,0,39.21,14.25Z"/><path class="cls-1" d="M40.1,9.2l2.4-4.33a1.08,1.08,0,0,0-.4-1.48l0,0a1.09,1.09,0,0,0-1.48.42L38.13,8.24a16.44,16.44,0,0,0-12,0L23.64,3.79a1.08,1.08,0,0,0-1.47-.42h0a1.09,1.09,0,0,0-.43,1.47h0l2.4,4.35a13.77,13.77,0,0,0-7.23,11.94H47.35A13.8,13.8,0,0,0,40.1,9.2ZM26,15.17h0a1.29,1.29,0,0,1-1.8,0,1.27,1.27,0,1,1,1.73-1.86l.06.06h0A1.29,1.29,0,0,1,26,15.17Zm14,0a1.27,1.27,0,1,1,0-1.86l.07.06h0A1.28,1.28,0,0,1,40,15.17Z"/></svg>