<svg id="JP" xmlns="http://www.w3.org/2000/svg" viewBox="0 0 64 64"><defs><style>.cls-1{fill:#fff;}</style></defs><title>apple</title><g id="_Group_" data-name=" Group "><g id="_Group_2" data-name=" Group 2"><path id="_Path_" data-name=" Path " class="cls-1" d="M47.14,33.76a12.61,12.61,0,0,1,6-10.58A12.92,12.92,0,0,0,43,17.68c-4.28-.45-8.43,2.56-10.61,2.56s-5.58-2.51-9.2-2.44a13.6,13.6,0,0,0-11.4,7c-4.93,8.54-1.25,21.08,3.47,28,2.37,3.38,5.13,7.15,8.74,7s4.85-2.26,9.12-2.26,5.47,2.26,9.15,2.17,6.19-3.39,8.47-6.8A28.33,28.33,0,0,0,54.58,45,12.18,12.18,0,0,1,47.14,33.76Z"/><path id="_Path_2" data-name=" Path 2" class="cls-1" d="M40.17,13.15A12.47,12.47,0,0,0,43,4.25a12.64,12.64,0,0,0-8.18,4.23,11.8,11.8,0,0,0-2.91,8.57A10.45,10.45,0,0,0,40.17,13.15Z"/></g></g></svg>