<?xml version="1.0" encoding="utf-8"?>
<!-- Generator: Adobe Illustrator 16.0.0, SVG Export Plug-In . SVG Version: 6.00 Build 0)  -->
<!DOCTYPE svg PUBLIC "-//W3C//DTD SVG 1.1//EN" "http://www.w3.org/Graphics/SVG/1.1/DTD/svg11.dtd">
<svg version="1.1" id="圖層_1" xmlns="http://www.w3.org/2000/svg" xmlns:xlink="http://www.w3.org/1999/xlink" x="0px" y="0px"
	 width="256px" height="256px" viewBox="0 0 256 256" enable-background="new 0 0 256 256" xml:space="preserve">
<rect fill="#58A6D6" width="256" height="256"/>
<g id="White">
	<path fill="#FFFFFF" d="M51.989,118.727c1.375-1.77,3.175-3.489,5.419-4.909c2.241-1.428,4.922-2.518,7.941-3.056
		c2.959-0.536,6.289-0.464,9.595,0.388c3.305,0.858,6.583,2.544,9.405,5.019c2.822,2.467,5.155,5.772,6.552,9.598
		c0.359,0.952,0.637,1.941,0.874,2.95l0.16,0.827l0.077,0.416l0.051,0.331c0.064,0.425,0.126,0.852,0.191,1.277
		c0.209,1.365,0.615,2.695,1.181,3.961c1.148,2.518,2.941,4.798,5.267,6.43c2.317,1.625,5.076,2.646,7.926,2.82
		c0.355,0.031,0.715,0.026,1.071,0.033c0.175,0.003,0.307-0.014,0.461-0.018l0.224-0.004l0.338-0.025l0.716-0.058
		c-0.229,0.017-0.025-0.002-0.059-0.001l0.066-0.009l0.134-0.021l0.268-0.037c0.357-0.041,0.708-0.127,1.061-0.194
		c0.7-0.154,1.389-0.354,2.064-0.597c0.669-0.258,1.326-0.547,1.958-0.891c2.531-1.368,4.637-3.524,6.03-6.058
		c0.342-0.638,0.639-1.298,0.897-1.974c0.248-0.679,0.441-1.375,0.595-2.079c0.145-0.707,0.233-1.426,0.283-2.147
		c0.008-0.354,0.033-0.75,0.019-1.019l-0.001-0.224c0-0.042,0.004-0.062,0-0.124l-0.013-0.183l-0.047-0.738l-0.045-0.774
		c-0.022-0.31-0.033-0.621-0.031-0.932c-0.016-0.622,0.004-1.244,0.038-1.866c0.083-1.243,0.226-2.484,0.492-3.703
		c0.508-2.441,1.383-4.799,2.572-6.973c2.362-4.363,6.066-7.917,10.392-10.178c2.166-1.126,4.483-1.943,6.852-2.391
		c0.28-0.062,0.622-0.11,0.947-0.158l0.491-0.071l0.243-0.034l0.186-0.017l0.715-0.067l0.314-0.029l0.223-0.011l0.445-0.021
		c1.188-0.059,2.379-0.023,3.557,0.093c4.722,0.442,9.235,2.256,12.814,5.089c3.597,2.812,6.328,6.563,7.82,10.653
		c0.741,2.037,1.223,4.152,1.397,6.263c0.032,0.422,0.063,0.843,0.095,1.265c0.014,0.345,0.074,0.681,0.107,1.021
		c0.104,0.674,0.215,1.347,0.397,1.998c0.674,2.624,2.061,4.993,3.844,6.911c1.778,1.935,4.002,3.362,6.333,4.266
		c1.169,0.45,2.373,0.768,3.575,0.953c0.594,0.097,1.23,0.152,1.764,0.183c0.25,0.028,0.613,0.021,0.955,0.023l0.431,0.002
		l0.444-0.018c2.359-0.094,4.585-0.68,6.562-1.549c1.985-0.865,3.676-2.082,5.098-3.377c1.415-1.31,2.515-2.747,3.376-4.142
		c0.842-1.405,1.438-2.773,1.857-4.005c0.416-1.235,0.642-2.337,0.784-3.239c0.127-0.866,0.194-1.536,0.22-2.016
		c-0.204-13.464-1.124-21.496-3.252-29.629c-2.926-11.108-8.147-20.146-15.741-27.219c-4.628-4.312-9.073-7.243-14.853-9.866
		c-8.407-3.795-16.407-5.658-28.481-6.555c-5.52-0.414-30.482-0.379-35.964,0.035c-7.371,0.552-15.111,1.966-20.963,3.76
		c-1.296,0.415-4.37,1.656-6.815,2.759c-15.518,7.003-26.038,19.733-30.593,37.085c-2.419,9.25-3.278,18.368-3.296,35.5
		c0.205-1.059,0.513-2.204,0.985-3.423C49.639,122.311,50.612,120.498,51.989,118.727z"/>
	<path fill="#FFFFFF" d="M207.018,131.757c-0.658,1.699-1.629,3.512-3.006,5.282c-1.376,1.771-3.175,3.488-5.421,4.908
		c-2.236,1.426-4.935,2.519-7.927,3.055l-0.563,0.098l-0.585,0.077c-0.339,0.044-0.661,0.089-1.102,0.111
		c-0.414,0.027-0.836,0.055-1.224,0.054c-0.397,0.009-0.798,0.013-1.201-0.008c-1.612-0.055-3.268-0.28-4.924-0.701
		c-1.658-0.409-3.299-1.057-4.888-1.885c-1.589-0.831-3.124-1.863-4.536-3.103c-1.42-1.232-2.711-2.675-3.816-4.295
		c-1.115-1.612-2.046-3.403-2.737-5.319c-0.354-0.955-0.634-1.945-0.861-2.954c-0.095-0.507-0.211-1.014-0.277-1.53l-0.109-0.773
		c0.017,0.175-0.004,0.001-0.002,0.02l-0.013-0.08l-0.023-0.161l-0.049-0.322c-0.212-1.344-0.625-2.661-1.193-3.927
		c-1.16-2.505-2.973-4.759-5.311-6.363c-2.326-1.604-5.104-2.582-7.967-2.729c-2.875-0.145-5.79,0.5-8.299,1.891
		c-2.524,1.385-4.605,3.567-5.979,6.11c-0.685,1.275-1.18,2.647-1.462,4.062c-0.151,0.706-0.219,1.428-0.266,2.148
		c-0.016,0.362-0.026,0.723-0.013,1.087c-0.002,0.181,0.007,0.362,0.023,0.544l0.046,0.701l0.045,0.737l0.011,0.185l0.007,0.245
		l0.008,0.516c0.019,0.717-0.021,1.304-0.048,1.933c-0.092,1.242-0.258,2.481-0.521,3.7c-0.274,1.216-0.621,2.414-1.059,3.577
		c-0.448,1.162-0.97,2.289-1.57,3.375c-2.397,4.345-6.131,7.869-10.477,10.096c-1.087,0.557-2.214,1.024-3.36,1.427
		c-1.153,0.382-2.325,0.692-3.509,0.912c-0.594,0.094-1.187,0.199-1.783,0.251l-1.019,0.093l-0.716,0.029l-0.377,0.014l-0.491,0.005
		c-0.322-0.003-0.667,0.003-0.97-0.012c-0.594-0.03-1.188-0.056-1.778-0.129c-4.729-0.495-9.216-2.373-12.764-5.234
		c-3.558-2.851-6.25-6.615-7.714-10.707c-0.736-2.043-1.198-4.15-1.365-6.24c-0.035-0.436-0.067-0.871-0.101-1.303l-0.025-0.312
		l-0.029-0.221l-0.049-0.445c-0.114-0.67-0.221-1.345-0.408-1.995c-0.685-2.624-2.074-5-3.858-6.924
		c-1.78-1.94-3.995-3.379-6.322-4.289c-2.339-0.917-4.781-1.262-7.166-1.157c-2.335,0.088-4.579,0.678-6.548,1.547
		c-1.986,0.866-3.676,2.082-5.097,3.376c-1.417,1.308-2.517,2.747-3.375,4.14c-0.843,1.406-1.438,2.773-1.857,4.006
		c-0.417,1.235-0.642,2.337-0.786,3.238c-0.132,0.896-0.2,1.599-0.224,2.075c0.199,13.548,1.12,21.604,3.253,29.766
		c2.926,11.106,8.149,20.146,15.741,27.218c4.629,4.313,9.075,7.243,14.853,9.866c8.408,3.794,16.408,5.659,28.483,6.554
		c6.184,0.449,29.075,0.449,35.259,0c12.075-0.896,20.075-2.76,28.482-6.554c15.519-7.004,26.038-19.732,30.594-37.084
		c2.427-9.286,3.285-18.438,3.297-35.7C207.799,129.393,207.488,130.537,207.018,131.757z"/>
</g>
</svg>
