<svg aria-hidden="true" style="position: absolute; width: 0; height: 0; overflow: hidden;" version="1.1" xmlns="http://www.w3.org/2000/svg" xmlns:xlink="http://www.w3.org/1999/xlink">
	<defs>

		<symbol id="mail" viewBox="0 0 64 64">
			<g>
				<polygon points="32.366,35.391 19.013,24.472 19.013,42.234 44.841,42.234 44.841,24.472 	"/>
				<polygon points="44.987,23.805 19.013,23.805 32.366,32.876 	"/>
			</g>
		</symbol>

		<symbol id="sentence" viewBox="0 0 64 64">
			<g>
				<path d="M34.486,40.837c-0.568,1.492,0.781,3.908,2.913,5.115c-2.842,0.143-7.104-1.989-6.963-5.684"/>
				<path d="M18.501,30.749c0,6.258,3.406,11.332,13.499,11.332c9.907,0,13.499-5.073,13.499-11.332
						 S41.97,19.417,32,19.417C21.721,19.417,18.501,24.49,18.501,30.749z M36.583,30.917c0-1.197,0.97-2.167,2.167-2.167
						 c1.196,0,2.167,0.97,2.167,2.167c0,1.196-0.97,2.167-2.167,2.167C37.553,33.084,36.583,32.113,36.583,30.917z M29.583,30.917
						 c0-1.197,0.97-2.167,2.167-2.167c1.196,0,2.167,0.97,2.167,2.167c0,1.196-0.97,2.167-2.167,2.167
						 C30.553,33.084,29.583,32.113,29.583,30.917z M22.583,30.917c0-1.197,0.97-2.167,2.167-2.167c1.196,0,2.167,0.97,2.167,2.167
						 c0,1.196-0.97,2.167-2.167,2.167C23.553,33.084,22.583,32.113,22.583,30.917z"/>
			</g>
		</symbol>

		<symbol id="card" viewBox="0 0 256 256">
			<g opacity="0.5">
				<defs>
					<rect id="SVGID_1_" y="114" opacity="0.5" width="256" height="142"/>
				</defs>
				<clipPath id="SVGID_2_">
					<use xlink:href="#SVGID_1_"  overflow="visible"/>
				</clipPath>
				<g clip-path="url(#SVGID_2_)">
					<path fill="#FFFFFF" d="M199,197c0,13.807-11.193,25-25,25H82c-13.807,0-25-11.193-25-25V60c0-13.807,11.193-25,25-25h92
											c13.807,0,25,11.193,25,25V197z"/>
				</g>
			</g>
			<g>
				<defs>
					<rect id="SVGID_3_" width="256" height="114"/>
				</defs>
				<clipPath id="SVGID_4_">
					<use xlink:href="#SVGID_3_"  overflow="visible"/>
				</clipPath>
				<g clip-path="url(#SVGID_4_)">
					<path fill="#FFFFFF" d="M199,196c0,13.807-11.193,25-25,25H82c-13.807,0-25-11.193-25-25V60c0-13.807,11.193-25,25-25h92
											c13.807,0,25,11.193,25,25V196z"/>
				</g>
			</g>
		</symbol>

		<symbol id="time" viewBox="0 0 256 256" >
			<line opacity="0.3" fill="none" stroke="#FFFFFF" stroke-miterlimit="10" x1="65.5" y1="41" x2="65.5" y2="215"/>
			<circle fill="#FFFFFF" cx="66" cy="88.5" r="15"/>
			<g>
				<path fill="#FFFFFF" d="M225,89c0,13.2-11.25,24-25,24h-83c-13.75,0-25-10.8-25-24s11.25-24,25-24h83C213.75,65,225,75.8,225,89z"
					  />
			</g>
			<circle fill="#FFFFFF" cx="66" cy="167.5" r="15"/>
			<g>
				<path fill="#FFFFFF" d="M225,168c0,13.2-11.25,24-25,24h-83c-13.75,0-25-10.8-25-24s11.25-24,25-24h83
										C213.75,144,225,154.8,225,168z"/>
			</g>
		</symbol>

	</defs>
</svg>
