<svg aria-hidden="true" style="position: absolute; width: 0; height: 0; overflow: hidden;" version="1.1" xmlns="http://www.w3.org/2000/svg" xmlns:xlink="http://www.w3.org/1999/xlink">
	<defs>

		<symbol id="mail" viewBox="0 0 256 256">
			<g>
				<path d="M225.96,75.095v11.561l-89.76,39.52c-0.82,0.46-1.71,0.69-2.641,1.01c-1.67,0.561-3.489,0.86-5.39,0.881
										c-1.9-0.021-3.72-0.32-5.39-0.881c-0.93-0.319-1.82-0.55-2.64-1.01l-90.1-39.67v-11.41c0-8.279,6.71-15,15-15h165.92
										C219.25,60.095,225.96,66.815,225.96,75.095z"/>
				<path d="M225.96,86.885v94.021c0,8.28-6.71,15-15,15H45.04c-8.29,0-15-6.72-15-15v-94.21l93.06,53.529l1.17,0.65
										c0.02,0.01,0.04,0.021,0.07,0.03c0.24,0.1,0.5,0.21,0.76,0.29c0.95,0.319,1.98,0.489,3.07,0.489s2.12-0.17,3.07-0.489
										c0.26-0.08,0.52-0.19,0.76-0.29c0.03-0.01,0.05-0.021,0.07-0.03l1.17-0.65L225.96,86.885z"/>
			</g>
		</symbol>

		<symbol id="sentence" viewBox="0 0 256 256">
			<path d="M220.94,74.98c-5.19-17.83-12.421-26.55-32.37-32.37c-29.48-8.61-92.25-9.82-121.39,0
					 c-19.21,6.47-26.14,14.24-32.37,32.37c-7.07,20.59-5.62,67.32,0,87.07c5.24,18.391,15.23,27.3,32.37,32.37
					 c14.06,4.15,34.64,6.35,55.61,6.65c8.52,9.42,20.03,15.59,32.75,18.85c0.49,0.13,0.99,0.26,1.479,0.37
					 c0.101,0.02,0.211,0.02,0.32,0.02c2.44,0,4.42-1.979,4.42-4.43c0-0.92-0.27-1.78-0.75-2.479c-0.02-0.021-0.04-0.03-0.05-0.051
					 c-0.44-0.409-0.87-0.81-1.27-1.22c-3.36-3.34-6.131-7.28-8.23-11.83c14.4-1.02,27.53-2.99,37.11-5.88
					 c19.3-5.83,27.1-15.29,32.37-32.37C228.27,138.3,226.97,95.69,220.94,74.98z M81.08,134.73c-9.02,0-16.33-7.311-16.33-16.331
					 s7.31-16.34,16.33-16.34s16.34,7.32,16.34,16.34S90.1,134.73,81.08,134.73z M128,134.73c-9.02,0-16.33-7.311-16.33-16.331
					 s7.31-16.34,16.33-16.34c9.02,0,16.33,7.32,16.33,16.34S137.02,134.73,128,134.73z M174.92,134.73c-9.02,0-16.34-7.311-16.34-16.331
					 s7.32-16.34,16.34-16.34c9.021,0,16.33,7.32,16.33,16.34S183.94,134.73,174.92,134.73z"/>
		</symbol>

		<symbol id="card" viewBox="0 0 256 256">
			<g>
				<g opacity="0.5">
					<path opacity="0.6" fill="#FFFFFF" d="M89.584,34.281c-2.32,2.76-4.06,6.06-5.01,9.73c-0.22,0.86-0.4,1.73-0.53,2.62l-8.03,53.73
														  l-2.33,15.63l-36.01,4.18l-6.27-53.96c-0.11-0.9-0.16-1.79-0.17-2.67c-0.13-12.54,9.17-23.42,21.87-25.01
														  c0.07-0.02,0.16-0.03,0.24-0.04L89.584,34.281z"/>
					<path opacity="0.6" fill="#FFFFFF" d="M163.234,33.171l-28.07-4.19l9.57-1.11c0.08-0.01,0.17-0.02,0.25-0.02
														  C151.795,27.121,158.265,29.201,163.234,33.171z"/>
					<path fill="#FFFFFF" d="M132.045,217.931l-57.07,6.63c-0.08,0.011-0.17,0.021-0.25,0.021c-12.73,1.359-24.27-7.09-27.02-19.33
											c-0.19-0.86-0.34-1.74-0.45-2.63l-9.58-82.45l36.01-4.18l-9.92,66.46c-0.14,0.89-0.22,1.779-0.26,2.66
											c-0.53,12.529,8.4,23.71,21.05,25.71c0.07,0.029,0.16,0.04,0.24,0.05L132.045,217.931z"/>
				</g>
				<g>
					<path opacity="0.6" fill="#FFFFFF" d="M224.744,64.941c-0.05,0.88-0.13,1.77-0.26,2.66l-8.02,53.73l-36.33-5.42l-46.29-6.92
														  h-0.021l-57.81-8.63l8.03-53.73c0.13-0.89,0.31-1.76,0.53-2.62c0.95-3.67,2.69-6.97,5.01-9.73h0.01
														  c5.35-6.39,13.77-9.95,22.62-8.71c0.08,0,0.17,0.01,0.24,0.02l22.7,3.39h0.01l28.07,4.19l0.01,0.01l40.21,6
														  c0.08,0.01,0.16,0.03,0.24,0.05C216.335,41.241,225.274,52.411,224.744,64.941z"/>
					<path fill="#FFFFFF" d="M216.465,121.331l-12.261,82.09c-0.13,0.89-0.31,1.77-0.529,2.62c-3.15,12.14-14.96,20.22-27.641,18.439
											c-0.08,0-0.17-0.01-0.25-0.02l-43.739-6.53l-47.25-7.06c-0.08-0.01-0.17-0.021-0.24-0.05c-12.65-2-21.58-13.181-21.05-25.71
											c0.04-0.881,0.12-1.771,0.26-2.66l9.92-66.46l2.33-15.63l57.81,8.63h0.021l46.29,6.92L216.465,121.331z"/>
				</g>
			</g>
		</symbol>

		<symbol id="time" viewBox="0 0 256 256" >
			<g>
				<path opacity="0.5" fill="#FFFFFF" d="M215.734,44.953l4.782,46.756c1.124,10.992-6.869,20.807-17.861,21.931l-92.02,9.411
													  c-10.993,1.124-20.807-6.87-21.931-17.862l-2.163-21.15l-9.925-4.453l-0.653-0.295c-1.161-0.635-1.995-1.816-2.141-3.238
													  c-0.144-1.413,0.425-2.727,1.423-3.583l0.645-0.479c0.029-0.014,0.057-0.036,0.086-0.049l8.686-6.277l-0.739-7.232
													  c-1.124-10.983,6.869-20.807,17.861-21.931l92.02-9.411C204.796,25.967,214.611,33.969,215.734,44.953z"/>
				<g opacity="0.3">
					<path fill="#FFFFFF" d="M58,30.17v194.47c0,3.86-3.13,7-7,7s-7-3.14-7-7V30.17c0-3.86,3.13-7,7-7S58,26.31,58,30.17z"/>
				</g>
				<path fill="#FFFFFF" d="M221.354,135.151l-6.273,70.722c-0.977,11.007-10.683,19.131-21.688,18.155l-92.139-8.173
										c-11.006-0.977-19.131-10.683-18.155-21.688l3.999-45.084l-8.902-6.251l-0.586-0.413c-1.019-0.844-1.615-2.161-1.489-3.585
										c0.125-1.415,0.933-2.598,2.075-3.25l0.723-0.348c0.031-0.008,0.063-0.024,0.094-0.031l9.717-4.52l0.643-7.241
										c0.976-10.998,10.682-19.132,21.689-18.155l92.138,8.173C214.206,114.438,222.33,124.153,221.354,135.151z"/>
				<path fill="#FFFFFF" d="M76.63,152.82l-0.69,0.41C76.16,153.06,76.39,152.93,76.63,152.82z"/>
				<circle fill="#FFFFFF" cx="51" cy="79.5" r="15"/>
				<circle fill="#FFFFFF" cx="51" cy="136.5" r="15"/>
			</g>
		</symbol>

	</defs>
</svg>
