<?xml version="1.0" encoding="utf-8"?>
<!-- Generator: Adobe Illustrator 22.1.0, SVG Export Plug-In . SVG Version: 6.00 Build 0)  -->
<svg version="1.1" id="圖層_1" xmlns="http://www.w3.org/2000/svg" xmlns:xlink="http://www.w3.org/1999/xlink" x="0px" y="0px"
	 viewBox="0 0 256 256" style="enable-background:new 0 0 256 256;" xml:space="preserve">
<style type="text/css">
	.st0{opacity:0.5;fill:#FFFFFF;}
	.st1{opacity:0.3;fill:#FFFFFF;}
	.st2{fill:#FFFFFF;}
	.st3{display:none;opacity:0.2;fill:#499E94;}
	.st4{display:none;opacity:0.3;fill:#499E94;}
</style>
<g id="card">
	<path class="st0" d="M196.1,166.2l-103.4,6.9c-16.4,1.1-30.7-11.3-31.8-27.8l-4.7-69.8c-1.1-16.4,11.3-30.7,27.8-31.8l103.4-6.9
		c16.4-1.1,30.7,11.3,31.8,27.8l4.7,69.8C224.9,150.9,212.5,165.1,196.1,166.2z"/>
	<g id="card_1_">
		<path class="st1" d="M196.1,166.2l-103.4,6.9c-16.4,1.1-30.7-11.3-31.8-27.8l-4.7-69.8c-1.1-16.4,11.3-30.7,27.8-31.8l103.4-6.9
			c16.4-1.1,30.7,11.3,31.8,27.8l4.7,69.8C224.9,150.9,212.5,165.1,196.1,166.2z"/>
		<g>
			<path class="st2" d="M176.3,212.2H72.6c-16.5,0-29.8-13.4-29.8-29.8v-70c0-16.5,13.4-29.8,29.8-29.8h103.7
				c16.5,0,29.8,13.4,29.8,29.8v70C206.1,198.8,192.7,212.2,176.3,212.2z"/>
			<path class="st3" d="M171.6,193.7H75c-7.4,0-13.4-6-13.4-13.4v-66c0-7.4,6-13.4,13.4-13.4h96.7c7.4,0,13.4,6,13.4,13.4v66
				C185,187.7,179,193.7,171.6,193.7z"/>
			<path class="st4" d="M94.6,147.3H75c-7.4,0-13.4-6-13.4-13.4v-19.6c0-7.4,6-13.4,13.4-13.4h19.6c7.4,0,13.4,6,13.4,13.4V134
				C108,141.4,102,147.3,94.6,147.3z"/>
		</g>
	</g>
</g>
</svg>
