<?xml version="1.0" encoding="utf-8"?>
<!-- Generator: Adobe Illustrator 22.1.0, SVG Export Plug-In . SVG Version: 6.00 Build 0)  -->
<svg version="1.1" id="圖層_1" xmlns="http://www.w3.org/2000/svg" xmlns:xlink="http://www.w3.org/1999/xlink" x="0px" y="0px"
	 viewBox="0 0 256 256" style="enable-background:new 0 0 256 256;" xml:space="preserve">
<style type="text/css">
	.st0{opacity:0.3;}
	.st1{fill:#FFFFFF;}
	.st2{opacity:0.5;fill:#FFFFFF;}
	.st3{display:none;opacity:0.3;fill:#499E94;}
</style>
<g id="time">
	<g class="st0">
		<path class="st1" d="M58,30.2v194.5c0,3.9-3.1,7-7,7s-7-3.1-7-7V30.2c0-3.9,3.1-7,7-7S58,26.3,58,30.2z"/>
	</g>
	<path class="st1" d="M76.6,132.8l-0.7,0.4C76.2,133.1,76.4,132.9,76.6,132.8z"/>
	<circle class="st1" cx="51" cy="85.9" r="15"/>
	<path class="st2" d="M203.4,215.1l-103.4-7C83.5,207,71,192.8,72.2,176.3l1.3-18.9c1.1-16.4,15.3-28.9,31.8-27.8l103.4,7
		c16.4,1.1,28.9,15.3,27.8,31.8l-1.3,18.9C234,203.7,219.8,216.2,203.4,215.1z"/>
	<g>
		<path class="st1" d="M208.6,149.9H104.9c-16.5,0-29.8-13.4-29.8-29.8V82.9c0-16.5,13.4-29.8,29.8-29.8h103.7
			c16.5,0,29.8,13.4,29.8,29.8v37.1C238.4,136.5,225.1,149.9,208.6,149.9z"/>
		<path class="st3" d="M207.6,129.2H103.7c-4.1,0-7.4-3.3-7.4-7.4V81.1c0-4.1,3.3-7.4,7.4-7.4h103.9c4.1,0,7.4,3.3,7.4,7.4v40.7
			C215,125.9,211.7,129.2,207.6,129.2z"/>
		<path class="st3" d="M172.5,96.6h-68.8c-4.1,0-7.4-3.3-7.4-7.4v-8c0-4.1,3.3-7.4,7.4-7.4h68.8c4.1,0,7.4,3.3,7.4,7.4v8
			C179.9,93.2,176.6,96.6,172.5,96.6z"/>
	</g>
	<circle class="st1" cx="51" cy="149.9" r="15"/>
</g>
</svg>
