<?xml version="1.0" encoding="utf-8"?>
<!-- Generator: Adobe Illustrator 22.1.0, SVG Export Plug-In . SVG Version: 6.00 Build 0)  -->
<svg version="1.1" id="圖層_1" xmlns="http://www.w3.org/2000/svg" xmlns:xlink="http://www.w3.org/1999/xlink" x="0px" y="0px"
	 viewBox="0 0 256 256" style="enable-background:new 0 0 256 256;" xml:space="preserve">
<g id="Mail">
	<path d="M213.7,75.1v11.6l-78.5,39.5c-0.7,0.5-1.5,0.7-2.3,1c-1.5,0.6-3.1,0.9-4.7,0.9c-1.7,0-3.3-0.3-4.7-0.9
		c-0.8-0.3-1.6-0.6-2.3-1L42.3,86.5V75.1c0-8.3,5.9-15,13.1-15h145.1C207.8,60.1,213.7,66.8,213.7,75.1z"/>
	<path d="M213.7,86.9v94c0,8.3-5.9,15-13.1,15H55.5c-7.2,0-13.1-6.7-13.1-15V86.7l81.4,53.5l1,0.6c0,0,0,0,0.1,0
		c0.2,0.1,0.4,0.2,0.7,0.3c0.8,0.3,1.7,0.5,2.7,0.5c1,0,1.9-0.2,2.7-0.5c0.2-0.1,0.5-0.2,0.7-0.3c0,0,0,0,0.1,0l1-0.6L213.7,86.9z"
		/>
</g>
</svg>
