<?xml version="1.0" encoding="utf-8"?>
<!-- Generator: Adobe Illustrator 16.0.0, SVG Export Plug-In . SVG Version: 6.00 Build 0)  -->
<!DOCTYPE svg PUBLIC "-//W3C//DTD SVG 1.1//EN" "http://www.w3.org/Graphics/SVG/1.1/DTD/svg11.dtd">
<svg version="1.1" id="圖層_1" xmlns="http://www.w3.org/2000/svg" xmlns:xlink="http://www.w3.org/1999/xlink" x="0px" y="0px"
	 width="1920px" height="1080px" viewBox="0 0 1920 1080" enable-background="new 0 0 1920 1080" xml:space="preserve">
<rect fill="#58A6D6" width="1920" height="1080"/>
<g id="White">
	<path fill="#FFFFFF" d="M693.467,505.471c4.82-6.205,11.134-12.229,19.002-17.213c7.859-5.009,17.257-8.83,27.846-10.72
		c10.377-1.876,22.054-1.624,33.646,1.364c11.589,3.007,23.083,8.92,32.978,17.596c9.898,8.65,18.076,20.24,22.975,33.655
		c1.26,3.342,2.235,6.805,3.063,10.345l0.559,2.9l0.269,1.457l0.18,1.164c0.224,1.491,0.446,2.985,0.67,4.485
		c0.737,4.782,2.156,9.452,4.141,13.889c4.024,8.826,10.313,16.822,18.467,22.543c8.129,5.698,17.8,9.274,27.794,9.89
		c1.246,0.113,2.503,0.091,3.756,0.116c0.612,0.007,1.075-0.046,1.618-0.055l0.785-0.019l1.188-0.089l2.509-0.207
		c-0.803,0.058-0.088-0.005-0.207-0.002l0.233-0.031l0.471-0.068l0.937-0.131c1.256-0.15,2.482-0.449,3.719-0.683
		c2.458-0.543,4.873-1.247,7.24-2.092c2.346-0.904,4.65-1.922,6.864-3.125c8.874-4.798,16.259-12.359,21.147-21.241
		c1.201-2.235,2.242-4.55,3.142-6.916c0.868-2.38,1.545-4.823,2.091-7.293c0.508-2.479,0.815-4.996,0.993-7.526
		c0.026-1.245,0.115-2.632,0.063-3.577l-0.002-0.782c-0.003-0.149,0.011-0.221-0.003-0.432l-0.042-0.647l-0.166-2.585l-0.157-2.716
		c-0.076-1.087-0.115-2.175-0.109-3.268c-0.055-2.181,0.014-4.363,0.131-6.546c0.289-4.357,0.79-8.712,1.722-12.985
		c1.782-8.559,4.85-16.826,9.019-24.448c8.283-15.302,21.274-27.762,36.438-35.694c7.597-3.945,15.721-6.809,24.023-8.381
		c0.987-0.215,2.182-0.385,3.321-0.554l1.722-0.248l0.857-0.118l0.651-0.064l2.507-0.233l1.098-0.101l0.781-0.039l1.562-0.074
		c4.165-0.206,8.339-0.082,12.473,0.321c16.555,1.555,32.381,7.914,44.935,17.847c12.607,9.858,22.188,23.012,27.417,37.354
		c2.601,7.143,4.291,14.561,4.903,21.96c0.112,1.483,0.224,2.961,0.335,4.436c0.046,1.21,0.256,2.389,0.374,3.584
		c0.367,2.361,0.757,4.72,1.396,7.003c2.362,9.197,7.225,17.509,13.479,24.231c6.235,6.785,14.032,11.786,22.208,14.957
		c4.1,1.58,8.316,2.69,12.539,3.341c2.08,0.345,4.313,0.54,6.184,0.646c0.877,0.095,2.147,0.071,3.347,0.079l1.511,0.007
		l1.556-0.058c8.279-0.324,16.08-2.384,23.008-5.436c6.966-3.035,12.892-7.297,17.877-11.839c4.964-4.589,8.82-9.633,11.836-14.521
		c2.953-4.93,5.04-9.725,6.513-14.047c1.461-4.331,2.25-8.194,2.752-11.358c0.445-3.034,0.682-5.384,0.77-7.066
		c-0.713-47.216-3.942-75.376-11.4-103.894c-10.262-38.95-28.572-70.642-55.197-95.439c-16.231-15.12-31.818-25.402-52.08-34.596
		c-29.48-13.306-57.533-19.837-99.871-22.983c-19.354-1.452-106.886-1.33-126.106,0.122c-25.845,1.936-52.989,6.895-73.51,13.185
		c-4.544,1.452-15.323,5.806-23.896,9.677c-54.417,24.555-91.301,69.191-107.276,130.035
		c-8.482,32.433-11.493,64.409-11.557,124.479c0.718-3.713,1.799-7.729,3.454-12.002
		C685.227,518.04,688.637,511.685,693.467,505.471z"/>
	<path fill="#FFFFFF" d="M1237.068,551.164c-2.303,5.954-5.711,12.31-10.541,18.521c-4.821,6.203-11.134,12.228-19.004,17.206
		c-7.838,5.007-17.301,8.832-27.794,10.712l-1.977,0.34l-2.053,0.271c-1.186,0.157-2.316,0.316-3.862,0.391
		c-1.451,0.099-2.929,0.192-4.29,0.188c-1.393,0.029-2.798,0.044-4.211-0.029c-5.654-0.188-11.46-0.98-17.265-2.453
		c-5.814-1.438-11.567-3.709-17.141-6.612c-5.571-2.914-10.954-6.532-15.902-10.883c-4.977-4.316-9.504-9.376-13.381-15.055
		c-3.911-5.657-7.177-11.935-9.596-18.657c-1.245-3.35-2.225-6.819-3.023-10.356c-0.335-1.778-0.746-3.558-0.973-5.366l-0.384-2.713
		c0.058,0.615-0.008,0.009-0.006,0.073l-0.042-0.281l-0.087-0.564l-0.167-1.13c-0.745-4.712-2.193-9.329-4.185-13.771
		c-4.068-8.786-10.421-16.686-18.616-22.31c-8.159-5.624-17.9-9.052-27.936-9.574c-10.084-0.507-20.306,1.753-29.1,6.631
		c-8.85,4.86-16.149,12.509-20.967,21.425c-2.393,4.473-4.131,9.285-5.12,14.248c-0.533,2.475-0.771,5.005-0.934,7.534
		c-0.053,1.268-0.092,2.536-0.04,3.809c-0.007,0.636,0.022,1.272,0.081,1.909l0.162,2.455l0.157,2.584l0.037,0.646l0.021,0.862
		l0.029,1.807c0.063,2.51-0.076,4.572-0.167,6.778c-0.323,4.358-0.907,8.7-1.828,12.975c-0.956,4.264-2.179,8.466-3.714,12.548
		c-1.568,4.068-3.399,8.026-5.5,11.831c-8.407,15.237-21.502,27.594-36.736,35.402c-3.814,1.95-7.766,3.592-11.785,4.999
		c-4.042,1.34-8.15,2.433-12.305,3.202c-2.082,0.329-4.162,0.695-6.252,0.88l-3.571,0.328l-2.514,0.105l-1.32,0.048l-1.725,0.011
		c-1.131-0.006-2.343,0.013-3.401-0.034c-2.085-0.11-4.167-0.199-6.236-0.455c-16.583-1.732-32.316-8.319-44.759-18.354
		c-12.478-9.992-21.915-23.192-27.05-37.54c-2.584-7.164-4.201-14.552-4.786-21.882c-0.12-1.527-0.236-3.051-0.353-4.567
		l-0.09-1.087l-0.099-0.778l-0.175-1.56c-0.398-2.345-0.774-4.717-1.433-6.998c-2.403-9.202-7.272-17.534-13.526-24.28
		c-6.238-6.802-14.009-11.848-22.17-15.038c-8.201-3.215-16.767-4.428-25.124-4.059c-8.188,0.313-16.054,2.378-22.96,5.428
		c-6.963,3.034-12.889,7.294-17.873,11.835c-4.966,4.589-8.821,9.631-11.835,14.519c-2.955,4.927-5.041,9.722-6.515,14.042
		c-1.461,4.332-2.251,8.194-2.754,11.357c-0.464,3.144-0.702,5.605-0.785,7.276c0.699,47.507,3.925,75.758,11.409,104.37
		c10.259,38.951,28.573,70.644,55.196,95.44c16.234,15.12,31.82,25.403,52.08,34.595c29.481,13.307,57.535,19.84,99.873,22.982
		c21.687,1.572,101.951,1.572,123.639,0c42.338-3.143,70.391-9.676,99.871-22.982c54.418-24.556,91.303-69.189,107.277-130.035
		c8.515-32.558,11.519-64.654,11.56-125.177C1239.807,542.869,1238.725,546.887,1237.068,551.164z"/>
</g>
</svg>
