<?xml version="1.0" encoding="utf-8"?>
<!-- Generator: Adobe Illustrator 16.0.0, SVG Export Plug-In . SVG Version: 6.00 Build 0)  -->
<!DOCTYPE svg PUBLIC "-//W3C//DTD SVG 1.1//EN" "http://www.w3.org/Graphics/SVG/1.1/DTD/svg11.dtd">
<svg version="1.1" id="圖層_1" xmlns="http://www.w3.org/2000/svg" xmlns:xlink="http://www.w3.org/1999/xlink" x="0px" y="0px"
	 width="1920px" height="1080px" viewBox="0 0 1920 1080" enable-background="new 0 0 1920 1080" xml:space="preserve">
<rect fill="#58A6D6" width="1920" height="1080"/>
<g>
	<path fill="#FFFFFF" d="M1217.652,585.581c-2.541,46.221-4.354,92.442-7.738,138.658c-4.238,56.023-55.657,105.629-111.56,109.262
		c-25.65,1.692-51.302,0.728-76.953,0.728c-60.378,0.238-120.751,0.604-181.129-0.123c-52.03-0.604-90.384-24.441-114.339-70.784
		c-8.953-17.181-11.737-36.053-12.703-55.292c-2.18-34.483-3.994-69.088-5.808-103.692c3.207,0.741,6.357,1.198,9.436,1.306
		c-3.074-0.093-6.225-0.544-9.426-1.275c1.784,5.945,23.761,18.073,42.277,3.207c9.751-7.831,13.964-20.124,14.335-34.443
		l0.005-0.087c0.056-2.779,0.041-5.533,0.025-8.195c-0.021-3.409-0.041-6.632,0.082-9.747c0.508-10.645,8.669-17.795,20.315-17.795
		l0.168,0.005c10.631,0.066,19.223,8.023,19.579,18.12l0.031,1.138c0.239,8.645,0.6,21.693,11.911,31.257
		c7.328,6.316,16.088,9.518,26.038,9.518c5.463,0,11.255-0.971,17.699-2.962c14.985-4.64,23.578-17.679,23.578-35.784v-0.075
		c-0.091-15.982,6.866-27.05,21.226-33.823c5.646-2.648,11.23-3.984,16.606-3.984c8.084,0,15.966,3.044,23.42,9.05
		c8.797,7.089,13.131,16.754,13.639,30.424c0.142,4.466,0.066,8.988-0.016,13.774c-0.182,10.813-0.375,21.997,1.988,33.721
		c7.703,37.938,41.748,68.753,80.943,73.271c3.957,0.461,7.956,0.69,11.874,0.69c26.581,0,51.141-10.498,69.148-29.561
		c17.729-18.765,27.074-44.116,25.646-69.563c-0.28-5.661-0.168-11.455-0.051-17.582c0.026-1.235,0.047-2.46,0.066-3.685
		l0.005-0.239c0-3.557,0.88-15.183,12.19-15.361h0.233c9.148,0,12.572,8.35,12.729,15.51c0.178,10.025,3.588,17.861,7.444,24.98
		C1190.528,604.515,1213.563,598.416,1217.652,585.581z"/>
	<path fill="#FFFFFF" d="M1241.491,454.179c-4.111,24.808-6.775,49.732-6.413,74.896c0.243,12.099-0.362,24.32-1.209,36.418
		c-0.367,5.143-1.968,9.412-4.722,12.766c-2.627,3.211-6.307,5.595-10.956,7.114c-0.214,0.071-0.438,0.142-0.655,0.208
		c-3.872,0.97-7.622,1.576-11.738,0.604c-12.1-3.146-18.028-11.128-18.269-25.286c-0.365-17.546-11.859-29.889-27.587-29.646
		c-15.488,0.245-26.378,12.344-26.378,29.763c-0.123,7.384-0.365,14.884,0,22.267c2.662,46.826-37.39,89.535-90.628,83.362
		c-32.548-3.751-61.948-29.641-68.483-61.827c-3.023-15.005-1.209-30.127-1.692-45.128c-0.604-16.46-5.931-30.617-18.994-41.141
		c-16.82-13.552-36.058-15.854-55.175-6.9c-19.238,9.075-29.646,24.929-29.523,46.948c0,9.923-3.268,18.877-13.43,22.022
		s-21.053,4.112-30.128-3.749c-6.773-5.687-6.657-13.797-6.896-21.901c-0.604-17.907-15.488-31.943-33.878-32.064
		c-19.36-0.122-34.122,13.069-34.971,31.581c-0.239,6.047,0,12.221-0.117,18.269c-0.244,9.313-2.785,17.784-9.802,24.319
		c-9.284,8.802-20.488,10.03-32.415,7.292c-0.045-0.01-0.086-0.021-0.132-0.03c-14.64-7.866-20.814-19.721-19.482-36.542
		c1.087-13.673-0.122-27.464,0.605-41.261c1.331-27.221-4.355-53.599-8.349-80.216c-4.838-32.064-0.239-62.797,13.796-91.838
		c27.826-57.349,75.862-88.448,136.24-102.844c21.901-5.204,44.523-5.686,66.908-6.896c39.203-2.18,78.407-1.697,117.487-0.727
		c32.188,0.843,64.611,2.053,95.589,12.337c66.303,22.146,113.489,62.919,130.67,133.338
		C1245.966,411.226,1244.757,432.644,1241.491,454.179z"/>
</g>
</svg>
