<?xml version="1.0" encoding="utf-8"?>
<!-- Generator: Adobe Illustrator 16.0.0, SVG Export Plug-In . SVG Version: 6.00 Build 0)  -->
<!DOCTYPE svg PUBLIC "-//W3C//DTD SVG 1.1//EN" "http://www.w3.org/Graphics/SVG/1.1/DTD/svg11.dtd">
<svg version="1.1" id="圖層_1" xmlns="http://www.w3.org/2000/svg" xmlns:xlink="http://www.w3.org/1999/xlink" x="0px" y="0px"
	 width="64px" height="64px" viewBox="0 0 64 64" enable-background="new 0 0 64 64" xml:space="preserve">
<path fill="#222222" d="M34.486,40.837c-0.568,1.492,0.781,3.908,2.913,5.115c-2.842,0.143-7.104-1.989-6.963-5.684"/>
<path fill="#222222" d="M18.501,30.749c0,6.258,3.406,11.332,13.499,11.332c9.907,0,13.499-5.073,13.499-11.332
	S41.97,19.417,32,19.417C21.721,19.417,18.501,24.49,18.501,30.749z M36.583,30.917c0-1.197,0.97-2.167,2.167-2.167
	c1.196,0,2.167,0.97,2.167,2.167c0,1.196-0.97,2.167-2.167,2.167C37.553,33.084,36.583,32.113,36.583,30.917z M29.583,30.917
	c0-1.197,0.97-2.167,2.167-2.167c1.196,0,2.167,0.97,2.167,2.167c0,1.196-0.97,2.167-2.167,2.167
	C30.553,33.084,29.583,32.113,29.583,30.917z M22.583,30.917c0-1.197,0.97-2.167,2.167-2.167c1.196,0,2.167,0.97,2.167,2.167
	c0,1.196-0.97,2.167-2.167,2.167C23.553,33.084,22.583,32.113,22.583,30.917z"/>
</svg>
